<svg fill="none" xmlns="http://www.w3.org/2000/svg" viewBox="0 0 512 512">
  <rect width="512" height="512" rx="100" fill="#171717"/>
  <path d="M256.661 122.52c11.52 0 22.08 1.92 31.68 5.76 9.6 3.6 17.88 8.76 24.84 15.48 7.2 6.48 12.72 14.4 16.56 23.76 4.08 9.12 6.12 19.44 6.12 30.96 0 9.84-1.08 18-3.24 24.48-2.16 6.24-5.04 11.64-8.64 16.2a55.761 55.761 0 0 1-11.88 11.88c-4.56 3.12-9.24 6.48-14.04 10.08-4.8 3.36-9.6 7.2-14.4 11.52-4.8 4.32-9.24 9.72-13.32 16.2-1.44 2.64-2.4 6.24-2.88 10.8-.24 2.4-.36 4.92-.36 7.56h-49.68v-10.8c0-8.88.84-16.68 2.52-23.4 1.68-6.72 3.96-12.6 6.84-17.64 3.12-5.28 6.6-9.72 10.44-13.32 4.08-3.84 8.52-7.2 13.32-10.08 9.84-6.24 16.44-11.52 19.8-15.84 3.6-4.32 5.4-8.64 5.4-12.96 0-6.24-2.4-11.16-7.2-14.76-4.56-3.84-9.96-5.76-16.2-5.76-7.2 0-13.2 2.28-18 6.84-4.8 4.56-7.2 9.96-7.2 16.2L170.981 192c0-11.52 2.16-21.6 6.48-30.24 4.56-8.64 10.68-15.84 18.36-21.6 7.92-5.76 17.04-10.08 27.36-12.96 10.32-3.12 21.36-4.68 33.12-4.68h.36ZM267.101 390h-49.32v-49.68h49.32V390Z" fill="#FFF7E8"/>
</svg>
